<svg width="24" height="24" viewBox="0 0 24 24" fill="none" xmlns="http://www.w3.org/2000/svg">
<path d="M3.64907 1.86153V0H1.82453V1.86153H0V3.72306H1.82453V5.58458H3.64907V3.72306H5.4736V1.86153H3.64907Z" transform="translate(17.5264 8.22021)" fill="#3F51B5"/>
<path d="M7.40374 6.08158V8.87387H11.733C11.4295 9.83508 10.8264 10.6687 10.0155 11.2478C9.20461 11.8268 8.23041 12.1195 7.24135 12.0812C6.25229 12.043 5.3026 11.6759 4.53699 11.0359C3.77139 10.3958 3.23185 9.51802 3.00058 8.53613C2.76931 7.55424 2.859 6.52214 3.25598 5.59708C3.65296 4.67203 4.33546 3.90474 5.19949 3.41214C6.06352 2.91955 7.0617 2.72865 8.04192 2.86854C9.02215 3.00842 9.93069 3.47143 10.6291 4.18699L12.5643 2.21253C11.3223 0.937766 9.67289 0.160492 7.91639 0.0222318C6.1599 -0.116029 4.41315 0.39392 2.9942 1.45923C1.57524 2.52453 0.578465 4.07434 0.185356 5.82646C-0.207754 7.57857 0.0289522 9.41646 0.852374 11.0055C1.6758 12.5945 3.03117 13.829 4.6717 14.4841C6.31223 15.1392 8.1288 15.1714 9.79066 14.5749C11.4525 13.9783 12.8491 12.7927 13.7262 11.2338C14.6032 9.67497 14.9024 7.84658 14.5692 6.08158H7.40374Z" transform="translate(1 4)" fill="#3F51B5"/>
</svg>
