<svg width="24" height="24" viewBox="0 0 24 24" fill="none" xmlns="http://www.w3.org/2000/svg">
<path d="M5 10C5.98891 10 6.95561 9.70676 7.77785 9.15735C8.6001 8.60794 9.24096 7.82705 9.6194 6.91342C9.99784 5.99979 10.0969 4.99446 9.90393 4.02455C9.711 3.05465 9.2348 2.16373 8.53553 1.46447C7.83627 0.765206 6.94536 0.289002 5.97545 0.0960759C5.00555 -0.0968502 4.00021 0.00216642 3.08658 0.380605C2.17295 0.759043 1.39206 1.39991 0.842652 2.22215C0.293245 3.0444 0 4.0111 0 5C0 6.32609 0.526784 7.59785 1.46447 8.53554C2.40215 9.47322 3.67392 10 5 10ZM5 3C5.39556 3 5.78224 3.1173 6.11114 3.33706C6.44004 3.55683 6.69638 3.86918 6.84776 4.23464C6.99913 4.60009 7.03874 5.00222 6.96157 5.39018C6.8844 5.77814 6.69392 6.13451 6.41421 6.41422C6.13451 6.69392 5.77814 6.8844 5.39018 6.96157C5.00222 7.03874 4.60009 6.99914 4.23463 6.84776C3.86918 6.69639 3.55682 6.44004 3.33706 6.11114C3.1173 5.78224 3 5.39557 3 5C3.0006 4.46975 3.2115 3.96139 3.58644 3.58645C3.96139 3.2115 4.46975 3.0006 5 3Z" transform="translate(7 2)" fill="#3F51B5"/>
<path d="M7.895 4.07157C9.09648 3.84399 10.246 3.40106 11.2871 2.76454C11.4557 2.66084 11.6021 2.52517 11.7177 2.36529C11.8333 2.20542 11.9159 2.02449 11.9609 1.83289C12.0058 1.64129 12.0121 1.44278 11.9795 1.24875C11.9468 1.05472 11.8759 0.868985 11.7707 0.702195C11.6655 0.535406 11.5281 0.390844 11.3664 0.276801C11.2047 0.162758 11.0219 0.0814771 10.8285 0.0376196C10.635 -0.0062379 10.4348 -0.0118087 10.2391 0.0212259C10.0435 0.0542605 9.85639 0.125251 9.68851 0.230126C8.57414 0.903391 7.29675 1.26522 5.99177 1.27724C4.68679 1.28927 3.40284 0.951057 2.27602 0.29845C1.93321 0.0974194 1.52409 0.0389841 1.13796 0.1359C0.751842 0.232816 0.420074 0.477214 0.215079 0.815744C0.0100836 1.15427 -0.0514905 1.55945 0.0437969 1.94282C0.139084 2.32619 0.383495 2.65663 0.723678 2.86201C1.72255 3.4469 2.81588 3.85628 3.9554 4.07208L0.551204 7.44664C0.410777 7.58537 0.299328 7.75019 0.223236 7.93166C0.147144 8.11314 0.107903 8.30771 0.107758 8.50424C0.107613 8.70076 0.146568 8.89539 0.222393 9.07698C0.298218 9.25856 0.409424 9.42354 0.549647 9.56248C0.689869 9.70141 0.856355 9.81156 1.03958 9.88663C1.2228 9.96171 1.41915 10.0002 1.61741 9.99999C1.81566 9.99975 2.01192 9.96075 2.19496 9.88523C2.37799 9.80971 2.5442 9.69915 2.68408 9.55988L5.92546 6.34675L9.16686 9.55989C9.30673 9.69917 9.47295 9.80972 9.65598 9.88524C9.83902 9.96076 10.0353 9.99976 10.2335 10C10.4318 10.0002 10.6281 9.96172 10.8114 9.88665C10.9946 9.81157 11.1611 9.70142 11.3013 9.56248C11.4415 9.42355 11.5527 9.25857 11.6285 9.07699C11.7044 8.8954 11.7433 8.70077 11.7432 8.50425C11.743 8.30772 11.7038 8.11315 11.6277 7.93167C11.5516 7.7502 11.4402 7.58538 11.2997 7.44665L7.895 4.07157Z" transform="translate(6 12)" fill="#3F51B5"/>
</svg>
