<svg width="64" height="64" viewBox="0 0 64 64" fill="none" xmlns="http://www.w3.org/2000/svg">
<path d="M32 0C14.32 0 0 14.32 0 32C0 49.68 14.32 64 32 64C49.68 64 64 49.68 64 32C64 14.32 49.68 0 32 0ZM32 9.6C37.296 9.6 41.6 13.904 41.6 19.2C41.6 24.512 37.296 28.8 32 28.8C26.704 28.8 22.4 24.512 22.4 19.2C22.4 13.904 26.704 9.6 32 9.6ZM32 55.04C23.984 55.04 16.944 50.944 12.8 44.736C12.88 38.384 25.616 34.88 32 34.88C38.384 34.88 51.104 38.384 51.2 44.736C47.056 50.944 40.016 55.04 32 55.04Z" fill="white"/>
</svg>
