<svg width="24" height="24" viewBox="0 0 24 24" fill="none" xmlns="http://www.w3.org/2000/svg">
<path d="M4 8C6.20914 8 8 6.20914 8 4C8 1.79086 6.20914 0 4 0C1.79086 0 0 1.79086 0 4C0 6.20914 1.79086 8 4 8Z" transform="translate(11.7852 4)" fill="#3F51B5"/>
<path d="M10.3681 0.662139C10.1597 0.662139 9.78479 1.09446 9.78479 1.32883C9.78479 3.58317 8.88926 5.74518 7.2952 7.33924C5.70114 8.9333 3.53913 9.82883 1.28479 9.82883C0.854432 9.82556 0.42494 9.78969 -3.90625e-08 9.72153C1.71814 10.876 3.71783 11.5417 5.78512 11.6473C7.85241 11.7529 9.90952 11.2945 11.7364 10.3211C13.5632 9.34772 15.0911 7.89599 16.1565 6.12123C17.2219 4.34646 17.7847 2.31545 17.7848 0.245459C17.7848 -0.490171 13.1024 0.662139 10.3681 0.662139Z" transform="translate(2 8.17139)" fill="#3F51B5"/>
<path d="M9.23331 4.028C7.57841 4.02885 5.94322 3.66892 4.44164 2.97326C2.94006 2.27761 1.60819 1.26296 0.53879 -2.27509e-07C0.189817 0.59653 0.00399608 1.2744 -9.53674e-08 1.9655C2.55672e-06 3.02084 0.419234 4.03296 1.16547 4.7792C1.91171 5.52544 2.92382 5.94468 3.97916 5.94469C6.10398 5.94469 9.8776 5.96733 10.1261 3.9829C9.83054 4.00585 9.5347 4.028 9.23331 4.028Z" transform="translate(3.13477 4.80518)" fill="#3F51B5"/>
<path d="M1.89587 0.861733C1.23411 0.857393 0.584138 0.686199 0.00610006 0.363993C0.00579006 0.384563 1.15891e-07 0.403603 1.15891e-07 0.424233C2.76804e-06 1.47958 0.419238 2.4917 1.16548 3.23794C1.91172 3.98418 2.92384 4.40342 3.97919 4.40342C6.17682 4.40342 9.25419 2.80942 9.25419 0.611773C9.25419 -0.897897 4.07287 0.861733 1.89587 0.861733Z" transform="translate(3.13477 9.17969)" fill="#3F51B5"/>
<path d="M3.02909 1.98756C2.58571 2.27484 2.0887 2.46928 1.56808 2.55915C1.04746 2.64901 0.514034 2.63243 -1.98364e-09 2.51042C0.239878 3.33276 0.739538 4.05535 1.42425 4.57009C2.10895 5.08484 2.94191 5.36409 3.79852 5.36607C4.99301 5.23873 6.10788 4.70625 6.95768 3.85721C7.80747 3.00817 8.34094 1.89377 8.46934 0.699396C8.46934 -1.19415 4.13098 1.27995 3.02909 1.98756Z" transform="translate(4.48242 11.0088)" fill="#3F51B5"/>
<path d="M1.10154 1.05182C-0.220604 1.05182 -0.534085 2.71222 1.17654 2.71222C2.00752 2.71037 2.81693 2.44757 3.49051 1.96092C4.16408 1.47427 4.66779 0.788354 4.93053 1.12457e-07C3.7719 0.688292 2.44919 1.05164 1.10154 1.05182Z" transform="translate(16.2939 4.32715)" fill="#3F51B5"/>
<path d="M5.65406 0.780112C4.64514 0.781421 3.64628 0.579754 2.7169 0.187112C0.00858855 -0.958398 -1.63836 3.53011 2.52906 3.53011C3.7951 3.53009 5.04072 3.21101 6.15086 2.60236C7.261 1.9937 8.19985 1.1151 8.88069 0.0477116C7.87305 0.528917 6.7707 0.779134 5.65406 0.780112Z" transform="translate(12.96 5.75537)" fill="#3F51B5"/>
</svg>
