<svg width="32" height="32" viewBox="0 0 32 32" fill="none" xmlns="http://www.w3.org/2000/svg">
<path d="M16 0C7.16 0 0 7.16 0 16C0 24.84 7.16 32 16 32C24.84 32 32 24.84 32 16C32 7.16 24.84 0 16 0ZM16 4.8C18.648 4.8 20.8 6.952 20.8 9.6C20.8 12.256 18.648 14.4 16 14.4C13.352 14.4 11.2 12.256 11.2 9.6C11.2 6.952 13.352 4.8 16 4.8ZM16 27.52C11.992 27.52 8.472 25.472 6.4 22.368C6.44 19.192 12.808 17.44 16 17.44C19.192 17.44 25.552 19.192 25.6 22.368C23.528 25.472 20.008 27.52 16 27.52Z" fill="white"/>
</svg>
